<svg width="17" height="24" viewBox="0 0 17 24" fill="none" xmlns="http://www.w3.org/2000/svg">
<path fill-rule="evenodd" clip-rule="evenodd" d="M4.22405 1.12408C6.83729 -0.399254 10.0494 -0.372628 12.6381 1.19382C15.2013 2.79218 16.7592 5.64477 16.7447 8.71337C16.6851 11.7618 15.0146 14.6274 12.9264 16.8426C11.7212 18.1269 10.373 19.2626 8.9093 20.2264C8.75856 20.3138 8.59343 20.3724 8.42208 20.3991C8.25716 20.3921 8.09655 20.3432 7.95474 20.2569C5.7201 18.8087 3.75964 16.9601 2.16767 14.8001C0.835558 12.9971 0.0787438 10.8188 2.79468e-06 8.56094C-0.00172791 5.48646 1.61082 2.64741 4.22405 1.12408ZM5.73448 9.83309C6.17406 10.9203 7.21164 11.6295 8.36276 11.6295C9.11688 11.6349 9.8418 11.3319 10.376 10.7879C10.9102 10.2439 11.2093 9.50414 11.2066 8.73346C11.2106 7.55709 10.5203 6.49427 9.45795 6.04125C8.39561 5.58822 7.17081 5.83435 6.35542 6.66471C5.54003 7.49507 5.2949 8.74587 5.73448 9.83309Z" fill="#BA1900"/>
<ellipse opacity="0.4" cx="8.37186" cy="22.8001" rx="5.98033" ry="1.19995" fill="#BA1900"/>
</svg>
