<svg width="18" height="13" viewBox="0 0 18 13" fill="none" xmlns="http://www.w3.org/2000/svg">
<g clip-path="url(#clip0_1_182)">
<path d="M9 0.541687V12.4584M12.75 2.70835H7.125C6.42881 2.70835 5.76113 2.90809 5.26884 3.26363C4.77656 3.61917 4.5 4.10138 4.5 4.60419C4.5 5.10699 4.77656 5.58921 5.26884 5.94474C5.76113 6.30028 6.42881 6.50002 7.125 6.50002H10.875C11.5712 6.50002 12.2389 6.69976 12.7312 7.0553C13.2234 7.41083 13.5 7.89305 13.5 8.39585C13.5 8.89866 13.2234 9.38087 12.7312 9.73641C12.2389 10.0919 11.5712 10.2917 10.875 10.2917H4.5" stroke="#801515" stroke-width="2" stroke-linecap="round" stroke-linejoin="round"/>
</g>
<defs>
<clipPath id="clip0_1_182">
<rect width="18" height="13" fill="white"/>
</clipPath>
</defs>
</svg>
