<svg width="22" height="24" viewBox="0 0 22 24" fill="none" xmlns="http://www.w3.org/2000/svg">
<path d="M20.625 3.80418C21.45 4.17085 22 4.95001 22 5.82084C22 15.9958 15.7667 21.6333 11.825 23.2833C11.275 23.5125 10.6792 23.5125 10.1292 23.2833C5.22501 21.2208 1.6067e-05 14.9417 1.6067e-05 5.82084C1.6067e-05 4.95001 0.504182 4.17085 1.32918 3.80418L10.1292 0.137515C10.4042 0.0458483 10.6792 1.50175e-05 11 1.50175e-05C11.275 1.50175e-05 11.55 0.0458483 11.825 0.137515L20.625 3.80418ZM11 20.4417C15.2625 18.2875 18.8833 13.2458 19.0208 6.32501L11 2.97918V20.4417Z" fill="#19127B"/>
</svg>
