<svg width="17" height="13" viewBox="0 0 17 13" fill="none" xmlns="http://www.w3.org/2000/svg">
<path d="M16.4688 10.625C16.7344 10.625 17 10.8907 17 11.1563V12.2188C17 12.5176 16.7344 12.75 16.4688 12.75H1.0625C0.464844 12.75 0 12.2852 0 11.6875V0.531269C0 0.265644 0.232422 1.86624e-05 0.531251 1.86624e-05H1.59375C1.85938 1.86624e-05 2.125 0.265644 2.125 0.531269V10.625H16.4688ZM15.4063 1.06252C15.6719 1.06252 15.9375 1.32815 15.9043 1.59377V5.54495C15.9043 6.24221 15.0742 6.60745 14.5762 6.1094L13.4805 5.0137L10.293 8.2012C9.89454 8.63284 9.19728 8.63284 8.79884 8.2012L6.37501 5.77737L4.81446 7.30471C4.61524 7.50393 4.28321 7.50393 4.08399 7.30471L3.32032 6.54104C3.1211 6.34182 3.1211 6.00979 3.32032 5.81057L5.61133 3.51955C6.00977 3.08791 6.70704 3.08791 7.10548 3.51955L9.56251 5.94338L11.9863 3.51955L10.8906 2.42385C10.3926 1.9258 10.7578 1.06252 11.4551 1.06252H15.4063Z" fill="#081122"/>
</svg>
