<svg width="23" height="22" viewBox="0 0 23 22" fill="none" xmlns="http://www.w3.org/2000/svg">
<path fill-rule="evenodd" clip-rule="evenodd" d="M14.323 5.28217C14.323 8.19943 11.9205 10.5643 8.95689 10.5643C5.99329 10.5643 3.59082 8.19943 3.59082 5.28217C3.59082 2.36491 5.99329 0 8.95689 0C11.9205 0 14.323 2.36491 14.323 5.28217ZM12.4565 5.28217C12.4565 7.18473 10.8897 8.72706 8.95689 8.72706C7.02411 8.72706 5.45728 7.18473 5.45728 5.28217C5.45728 3.37961 7.02411 1.83728 8.95689 1.83728C10.8897 1.83728 12.4565 3.37961 12.4565 5.28217Z" fill="#161722"/>
<path d="M13.3069 13.6537C13.443 13.4222 13.3726 13.1232 13.1391 12.9906C11.592 12.1119 9.7595 11.6854 7.84362 11.8741C3.86817 12.2655 0.761649 15.1846 0.00876597 18.8512C-0.0387236 19.0825 0.111535 19.3047 0.343433 19.3629L1.24069 19.5881C1.51304 19.6564 1.78402 19.4729 1.84018 19.2013C2.43795 16.3111 4.88854 14.0112 8.02365 13.7025C9.51893 13.5553 10.9498 13.8827 12.1624 14.5603C12.4126 14.7002 12.7347 14.6271 12.88 14.38L13.3069 13.6537Z" fill="#161722"/>
<path d="M16.457 12.5V16H12.957C12.6809 16 12.457 16.2239 12.457 16.5V17.5C12.457 17.7761 12.6809 18 12.957 18H16.457V21.5C16.457 21.7761 16.6809 22 16.957 22H17.957C18.2332 22 18.457 21.7761 18.457 21.5V18H21.957C22.2332 18 22.457 17.7761 22.457 17.5V16.5C22.457 16.2239 22.2332 16 21.957 16H18.457V12.5C18.457 12.2239 18.2332 12 17.957 12H16.957C16.6809 12 16.457 12.2239 16.457 12.5Z" fill="#161722"/>
</svg>
