<svg width="21" height="22" viewBox="0 0 21 22" fill="none" xmlns="http://www.w3.org/2000/svg">
<path d="M10.9536 0.209277C10.7515 -0.0697585 10.2485 -0.0697596 10.0464 0.209277L8.62307 2.1744C8.52324 2.31224 8.35068 2.40631 8.15398 2.43011L5.4866 2.75287C5.0386 2.80708 4.88145 3.26024 5.23035 3.49182L7.21744 4.81074C7.40138 4.93282 7.48786 5.1254 7.44318 5.31339L6.92339 7.50027C6.84122 7.84597 7.29421 8.11457 7.68289 7.95062L10.1946 6.8911C10.3857 6.81046 10.6142 6.81046 10.8054 6.8911L13.3171 7.95062C13.7057 8.11457 14.1587 7.84597 14.0766 7.50027L13.5568 5.31339C13.5121 5.1254 13.5986 4.93282 13.7825 4.81074L15.7696 3.49182C16.1185 3.26025 15.9614 2.80708 15.5134 2.75287L12.846 2.43011C12.6493 2.40631 12.4767 2.31224 12.3769 2.1744L10.9536 0.209277Z" fill="#D7D7D9"/>
<rect x="7.56" y="9.99976" width="5.88" height="12" rx="1" fill="#D7D7D9"/>
<rect y="13.333" width="5.88" height="8.66665" rx="1" fill="#D7D7D9"/>
<rect x="15.12" y="16.6663" width="5.88" height="5.33332" rx="1" fill="#D7D7D9"/>
</svg>
