<svg width="32" height="32" viewBox="0 0 32 32" fill="none" xmlns="http://www.w3.org/2000/svg">
<g opacity="0.8">
<path d="M10.6927 13.5149L7.07112 9.59953L7.20894 6.49713L10.3425 6.63358L13.7285 10.2943L10.6927 13.5149Z" fill="#D7D7D9"/>
<path d="M14.971 18.1404L16.9755 20.3076L20.2469 17.3416L18.0068 14.9197L14.971 18.1404Z" fill="#D7D7D9"/>
<rect width="5.67742" height="0.900386" transform="matrix(0.740847 -0.671674 0.679022 0.734118 16.7528 20.9951)" fill="#D7D7D9"/>
<rect width="4.41577" height="0.900386" transform="matrix(0.740847 -0.671674 0.679022 0.734118 19.5432 23.0835)" fill="#D7D7D9"/>
<path d="M21.334 23.162L22.736 21.8909L24.967 24.3029C25.3219 24.6866 25.2957 25.2821 24.9085 25.6331C24.5214 25.9841 23.9198 25.9577 23.565 25.5741L21.334 23.162Z" fill="#D7D7D9"/>
<rect width="10.3635" height="1.80077" rx="0.900386" transform="matrix(0.740847 -0.671674 0.679022 0.734118 15.8726 23.4942)" fill="#D7D7D9"/>
</g>
<path d="M21.6764 9.59867L11.772 20.3067L8.50063 17.3407L18.405 6.63272L21.5386 6.49627L21.6764 9.59867Z" fill="#D7D7D9"/>
<rect width="5.67742" height="0.900386" transform="matrix(-0.740847 -0.671674 -0.679022 0.734118 11.9947 20.9951)" fill="#D7D7D9"/>
<rect width="4.41577" height="0.900386" transform="matrix(-0.740847 -0.671674 -0.679022 0.734118 9.20419 23.0826)" fill="#D7D7D9"/>
<path d="M7.41348 23.1603L6.01145 21.8892L3.78047 24.3012C3.42562 24.6848 3.45181 25.2804 3.83897 25.6314C4.22613 25.9824 4.82765 25.9559 5.1825 25.5723L7.41348 23.1603Z" fill="#D7D7D9"/>
<rect width="10.3635" height="1.80077" rx="0.900386" transform="matrix(-0.740847 -0.671674 -0.679022 0.734118 12.8747 23.4933)" fill="#D7D7D9"/>
</svg>
