<svg width="13" height="14" viewBox="0 0 13 14" fill="none" xmlns="http://www.w3.org/2000/svg">
<path d="M4.04685 7.875H2.9531C2.76169 7.875 2.62498 7.73828 2.62498 7.54688V6.45312C2.62498 6.28906 2.76169 6.125 2.9531 6.125H4.04685C4.21091 6.125 4.37498 6.28906 4.37498 6.45312V7.54688C4.37498 7.73828 4.21091 7.875 4.04685 7.875ZM6.99998 7.54688C6.99998 7.73828 6.83591 7.875 6.67185 7.875H5.5781C5.38669 7.875 5.24998 7.73828 5.24998 7.54688V6.45312C5.24998 6.28906 5.38669 6.125 5.5781 6.125H6.67185C6.83591 6.125 6.99998 6.28906 6.99998 6.45312V7.54688ZM9.62498 7.54688C9.62498 7.73828 9.46091 7.875 9.29685 7.875H8.2031C8.01169 7.875 7.87498 7.73828 7.87498 7.54688V6.45312C7.87498 6.28906 8.01169 6.125 8.2031 6.125H9.29685C9.46091 6.125 9.62498 6.28906 9.62498 6.45312V7.54688ZM6.99998 10.1719C6.99998 10.3633 6.83591 10.5 6.67185 10.5H5.5781C5.38669 10.5 5.24998 10.3633 5.24998 10.1719V9.07812C5.24998 8.91406 5.38669 8.75 5.5781 8.75H6.67185C6.83591 8.75 6.99998 8.91406 6.99998 9.07812V10.1719ZM4.37498 10.1719C4.37498 10.3633 4.21091 10.5 4.04685 10.5H2.9531C2.76169 10.5 2.62498 10.3633 2.62498 10.1719V9.07812C2.62498 8.91406 2.76169 8.75 2.9531 8.75H4.04685C4.21091 8.75 4.37498 8.91406 4.37498 9.07812V10.1719ZM9.62498 10.1719C9.62498 10.3633 9.46091 10.5 9.29685 10.5H8.2031C8.01169 10.5 7.87498 10.3633 7.87498 10.1719V9.07812C7.87498 8.91406 8.01169 8.75 8.2031 8.75H9.29685C9.46091 8.75 9.62498 8.91406 9.62498 9.07812V10.1719ZM12.25 3.0625V12.6875C12.25 13.4258 11.6484 14 10.9375 14H1.31248C0.574194 14 -2.47955e-05 13.4258 -2.47955e-05 12.6875V3.0625C-2.47955e-05 2.35156 0.574194 1.75 1.31248 1.75H2.62498V0.328125C2.62498 0.164062 2.76169 0 2.9531 0H4.04685C4.21091 0 4.37498 0.164062 4.37498 0.328125V1.75H7.87498V0.328125C7.87498 0.164062 8.01169 0 8.2031 0H9.29685C9.46091 0 9.62498 0.164062 9.62498 0.328125V1.75H10.9375C11.6484 1.75 12.25 2.35156 12.25 3.0625ZM10.9375 12.5234V4.375H1.31248V12.5234C1.31248 12.6328 1.36716 12.6875 1.47654 12.6875H10.7734C10.8554 12.6875 10.9375 12.6328 10.9375 12.5234Z" fill="#0A5C6D"/>
</svg>
