<svg width="21" height="21" viewBox="0 0 21 21" fill="none" xmlns="http://www.w3.org/2000/svg">
<path fill-rule="evenodd" clip-rule="evenodd" d="M14.4859 16.3272C12.9738 17.4578 11.0971 18.1275 9.06375 18.1275C4.05808 18.1275 0 14.0694 0 9.06375C0 4.05808 4.05808 0 9.06375 0C14.0694 0 18.1275 4.05808 18.1275 9.06375C18.1275 11.3103 17.3102 13.366 15.9567 14.9496L20.4352 19.4282C20.6319 19.6248 20.6319 19.9437 20.4352 20.1402L19.7232 20.8525C19.5265 21.0492 19.2076 21.0492 19.0112 20.8525L14.4859 16.3272ZM16.1133 9.06375C16.1133 12.9571 12.9571 16.1133 9.06375 16.1133C5.1704 16.1133 2.01417 12.9571 2.01417 9.06375C2.01417 5.1704 5.1704 2.01417 9.06375 2.01417C12.9571 2.01417 16.1133 5.1704 16.1133 9.06375Z" fill="#8A8B8F"/>
</svg>
