<svg width="18" height="9" viewBox="0 0 18 9" fill="none" xmlns="http://www.w3.org/2000/svg">
<path d="M13.4579 -1.74292e-05C15.9252 0.0280199 17.9439 2.01867 17.9439 4.514C17.9439 6.98128 15.9252 8.99997 13.4579 8.99997C12.1963 8.99997 11.0467 8.46726 10.2337 7.62614H7.68225C6.86917 8.46726 5.71964 8.97194 4.48599 8.97194C1.99067 8.97194 1.72495e-05 6.98128 1.72495e-05 4.48596C1.72495e-05 2.01867 1.99067 -1.74292e-05 4.48599 -1.74292e-05H13.4579ZM6.95328 4.82241V4.14951C6.95328 3.98129 6.78506 3.81306 6.61683 3.81306H5.15889V2.35512C5.15889 2.1869 4.99067 2.01867 4.82244 2.01867H4.14955C3.95328 2.01867 3.8131 2.1869 3.8131 2.35512V3.81306H2.35516C2.15889 3.81306 2.01871 3.98129 2.01871 4.14951V4.82241C2.01871 5.01867 2.15889 5.15886 2.35516 5.15886H3.8131V6.6168C3.8131 6.81306 3.95328 6.95325 4.14955 6.95325H4.82244C4.99067 6.95325 5.15889 6.81306 5.15889 6.6168V5.15886H6.61683C6.78506 5.15886 6.95328 5.01867 6.95328 4.82241ZM13.0094 6.95325C13.6262 6.95325 14.1308 6.47661 14.1308 5.83175C14.1308 5.21493 13.6262 4.71026 13.0094 4.71026C12.3645 4.71026 11.8879 5.21493 11.8879 5.83175C11.8879 6.47661 12.3645 6.95325 13.0094 6.95325ZM14.8037 4.26166C15.4206 4.26166 15.9252 3.78503 15.9252 3.14017C15.9252 2.52334 15.4206 2.01867 14.8037 2.01867C14.1589 2.01867 13.6822 2.52334 13.6822 3.14017C13.6822 3.78503 14.1589 4.26166 14.8037 4.26166Z" fill="#081122"/>
</svg>
