<svg width="18" height="17" viewBox="0 0 18 17" fill="none" xmlns="http://www.w3.org/2000/svg">
<path d="M2.64444 9.94815C1.65278 9.94815 0.881481 9.17685 0.881481 8.18519C0.881481 7.22106 1.65278 6.42222 2.64444 6.42222C3.60856 6.42222 4.40741 7.22106 4.40741 8.18519C4.40741 9.17685 3.60856 9.94815 2.64444 9.94815ZM14.9852 9.94815C13.9935 9.94815 13.2222 9.17685 13.2222 8.18519C13.2222 7.22106 13.9935 6.42222 14.9852 6.42222C15.9493 6.42222 16.7481 7.22106 16.7481 8.18519C16.7481 9.17685 15.9493 9.94815 14.9852 9.94815ZM15.8667 10.8296C16.8308 10.8296 17.6296 11.6285 17.6296 12.5926V13.4741C17.6296 13.9699 17.2164 14.3556 16.7481 14.3556H14.9301C14.7373 13.0609 13.966 11.959 12.8366 11.353C13.1671 11.05 13.6079 10.8296 14.1037 10.8296H15.8667ZM8.81481 10.8296C7.10694 10.8296 5.72963 9.45231 5.72963 7.74444C5.72963 6.06412 7.10694 4.65926 8.81481 4.65926C10.4951 4.65926 11.9 6.06412 11.9 7.74444C11.9 9.45231 10.4951 10.8296 8.81481 10.8296ZM10.9083 11.7111C12.6713 11.7111 14.1037 13.1435 14.1037 14.9065V15.6778C14.1037 16.4215 13.4977 17 12.7815 17H4.84815C4.1044 17 3.52593 16.4215 3.52593 15.6778V14.9065C3.52593 13.1435 4.93079 11.7111 6.69375 11.7111H6.91412C7.49259 11.9866 8.12616 12.1519 8.81481 12.1519C9.47593 12.1519 10.1095 11.9866 10.688 11.7111H10.9083ZM4.76551 11.353C3.63611 11.959 2.86481 13.0609 2.67199 14.3556H0.881481C0.385648 14.3556 0 13.9699 0 13.4741V12.5926C0 11.6285 0.771296 10.8296 1.76296 10.8296H3.52593C3.99421 10.8296 4.43495 11.05 4.76551 11.353Z" fill="#801515"/>
</svg>
