<svg width="20" height="16" viewBox="0 0 20 16" fill="none" xmlns="http://www.w3.org/2000/svg">
<path d="M16.5 14C16.75 14 17 14.25 17 14.5V15.5C17 15.7812 16.75 16 16.5 16H3.5C3.21875 16 3 15.7812 3 15.5V14.5C3 14.25 3.21875 14 3.5 14H16.5ZM18.5 4C19.3125 4 20 4.6875 20 5.5C20 6.34375 19.3125 7 18.5 7C18.4062 7 18.3125 7 18.25 7L16 13H4L1.71875 7C1.65625 7 1.5625 7 1.5 7C0.65625 7 0 6.34375 0 5.5C0 4.6875 0.65625 4 1.5 4C2.3125 4 3 4.6875 3 5.5C3 5.75 2.9375 5.9375 2.84375 6.125L5.125 7.5C5.59375 7.78125 6.21875 7.625 6.5 7.125L9.03125 2.65625C8.71875 2.40625 8.5 1.96875 8.5 1.5C8.5 0.6875 9.15625 0 10 0C10.8125 0 11.5 0.6875 11.5 1.5C11.5 1.96875 11.2812 2.40625 10.9375 2.65625L13.4688 7.125C13.75 7.625 14.375 7.78125 14.875 7.5L17.125 6.125C17.0312 5.9375 17 5.75 17 5.5C17 4.6875 17.6562 4 18.5 4Z" fill="#081122"/>
</svg>
