<svg width="20" height="20" viewBox="0 0 20 20" fill="none" xmlns="http://www.w3.org/2000/svg">
<path d="M16.1877 1.87507C16.2498 1.25045 16.2498 0.687927 16.2498 0H3.75014C3.75014 0.687927 3.75014 1.25045 3.81225 1.87507H0V2.4997C0 8.06281 7.06317 12.0005 8.75074 12.8747L8.74957 15.0006C8.74957 16.0635 7.93744 16.8756 6.8745 16.8756H5.62405V19.3753H14.3748V16.8756H13.1243C12.0614 16.8756 11.2493 16.0635 11.2493 15.0006V12.8759C12.9368 12.0004 20 8.06278 20 2.50087V1.87624L16.1877 1.87507ZM1.31253 3.12552H3.93763C4.18725 5.93813 4.87517 7.93861 5.6252 9.37536C3.62472 7.8132 1.56214 5.62522 1.31253 3.12552ZM14.438 9.37536C15.1881 7.93741 15.876 5.93813 16.1256 3.12552H18.7507C18.4378 5.62522 16.3752 7.8132 14.438 9.37536Z" fill="#D7D7D9"/>
</svg>
