<svg width="32" height="32" viewBox="0 0 32 32" fill="none" xmlns="http://www.w3.org/2000/svg">
<path d="M16 10.9787C14.8954 10.9787 14 11.8741 14 12.9787C14 14.0833 14.8954 14.9787 16 14.9787C17.1046 14.9787 18 14.0833 18 12.9787C18 11.8741 17.1046 10.9787 16 10.9787ZM17.5 12.9787C17.5 13.8058 16.8271 14.4787 16 14.4787C15.5052 14.4787 15.0669 14.2368 14.7936 13.8663C15.4918 13.8425 16.0614 13.3157 16.1472 12.6349C16.3442 12.5546 16.5182 12.4308 16.6591 12.276C16.8618 12.5351 17.1529 12.7205 17.4867 12.7895C17.4946 12.8516 17.5 12.9145 17.5 12.9787Z" fill="#45454E"/>
<path d="M6.9563 12.6237C7.68918 12.6237 8.32814 12.2283 8.67642 11.6404C8.722 11.6584 8.77135 11.6691 8.82335 11.6691C9.04422 11.6691 9.22327 11.4901 9.22327 11.2692C9.22327 11.149 9.16912 11.0424 9.08513 10.9691C9.23668 10.9122 9.34508 10.7671 9.34508 10.5957C9.34508 10.4455 9.26132 10.3163 9.13895 10.2479C9.26132 10.1795 9.34508 10.0503 9.34508 9.9001C9.34508 9.70064 9.19864 9.53668 9.00769 9.50649C9.0161 9.4742 9.02199 9.4409 9.02199 9.40598C9.02199 9.18511 8.84294 9.00606 8.62207 9.00606C8.49619 9.00606 8.38527 9.06538 8.31197 9.1563C7.9554 8.82672 7.48013 8.62372 6.9563 8.62372C5.85173 8.62372 4.9563 9.51915 4.9563 10.6237C4.9563 11.7283 5.85173 12.6237 6.9563 12.6237ZM6.3487 10.7388C6.37255 10.6411 6.45764 10.5732 6.55785 10.5645C7.18558 10.5102 7.4126 10.1933 7.49401 9.99123C7.53177 9.89748 7.62693 9.83868 7.72748 9.849C7.94049 9.87083 8.09848 9.85153 8.21711 9.81412C8.36779 10.048 8.4563 10.3255 8.4563 10.6237C8.4563 11.4508 7.78341 12.1237 6.9563 12.1237C6.36344 12.1237 5.85134 11.7771 5.60796 11.2767C6.14296 11.1946 6.30432 10.9206 6.3487 10.7388Z" fill="#45454E"/>
<path d="M23.0249 10.6237C23.0249 11.7283 23.9203 12.6237 25.0249 12.6237C26.1295 12.6237 27.0249 11.7283 27.0249 10.6237C27.0249 9.51915 26.1295 8.62372 25.0249 8.62372C23.9203 8.62372 23.0249 9.51915 23.0249 10.6237ZM24.6299 10.4399C24.7572 10.4399 24.8785 10.3864 24.9643 10.2924L25.1246 10.1168C25.2986 9.92607 25.5966 9.91927 25.7792 10.1018L25.9847 10.3073C26.0696 10.3922 26.1848 10.4399 26.3048 10.4399H26.5125C26.5199 10.5003 26.5249 10.5614 26.5249 10.6237C26.5249 11.4508 25.852 12.1237 25.0249 12.1237C24.1978 12.1237 23.5249 11.4508 23.5249 10.6237C23.5249 10.5614 23.5299 10.5003 23.5373 10.4399L24.6299 10.4399Z" fill="#45454E"/>
<path d="M18.569 21.7334V18.5364C18.569 18.0081 18.7198 17.4907 19.0035 17.045L21.2979 13.4417C21.5014 13.1222 21.4213 12.7212 21.1545 12.4915L21.6015 11.2616C21.6114 11.2498 21.6236 11.2407 21.6314 11.2267C21.6537 11.1871 21.66 11.1444 21.6595 11.102L24.0615 4.49207C24.0756 4.45326 24.0766 4.41397 24.0717 4.37566C24.09 4.27913 24.0505 4.17691 23.9631 4.11987C23.8911 4.07288 22.1672 2.96265 19.3517 2.39758C16.7568 1.87659 12.7157 1.75037 8.19846 4.10754C8.15258 4.13152 8.12138 4.16975 8.09846 4.2121C8.01527 4.27689 7.97708 4.38763 8.01499 4.49206L10.4884 11.2987C10.4928 11.3099 10.4935 11.3218 10.4996 11.3326C10.5002 11.3337 10.5011 11.3344 10.5017 11.3354L10.9045 12.4438C10.5899 12.6617 10.484 13.0992 10.702 13.4417L12.9964 17.045C13.2802 17.4907 13.4309 18.0081 13.4309 18.5364V21.7334L11.6253 27.8587C11.4765 28.3634 11.7477 28.8965 12.2433 29.0735C12.7278 29.2466 13.2642 29.0205 13.4788 28.5529L15.7048 23.7001C15.7577 23.5847 15.873 23.5107 16 23.5107C16.1269 23.5107 16.2422 23.5847 16.2951 23.7001L18.5212 28.5529C18.7357 29.0205 19.2721 29.2466 19.7567 29.0735C20.2523 28.8965 20.5234 28.3634 20.3747 27.8587L18.569 21.7334ZM23.5443 4.45143L21.2603 10.7366C18.8261 9.44831 15.1393 8.5231 10.8563 10.8472L8.5473 4.49292C16.2098 0.562045 22.531 3.86423 23.5443 4.45143ZM18.1092 14.6392C17.556 15.2101 16.7949 15.5324 16 15.5324C15.205 15.5324 14.444 15.2101 13.8908 14.6392L11.8513 12.5343C11.7263 12.4054 11.5615 12.3294 11.3892 12.3138L11.0291 11.3226C15.1836 9.03858 18.753 9.95855 21.0879 11.2111L20.6879 12.3118C20.4883 12.309 20.2922 12.3862 20.1487 12.5343L18.1092 14.6392Z" fill="#45454E"/>
<path d="M29.9887 9.7839C30.1504 9.33046 29.9261 8.8301 29.48 8.64907C29.0234 8.46376 28.5026 8.68077 28.3126 9.13557L27.028 12.2115C26.776 12.8148 26.1863 13.2076 25.5325 13.2076H24.0384C23.0698 13.2076 22.1961 13.7895 21.8228 14.6833C21.2233 16.1189 20.3338 18.247 19.8492 19.3981C19.661 19.845 19.8749 20.3588 20.3284 20.5428L20.3491 20.5512C20.7893 20.7298 21.2903 20.5121 21.4601 20.0684L22.5096 17.3256C22.5635 17.185 22.773 17.2302 22.7642 17.3805L22.118 28.3442C22.0879 28.8419 22.4835 29.2621 22.9821 29.2621C23.4038 29.2621 23.7641 28.9583 23.8354 28.5427L24.9435 22.0804C24.9602 21.983 25.0446 21.9118 25.1434 21.9118C25.2422 21.9118 25.3267 21.983 25.3434 22.0804L26.4515 28.5427C26.5227 28.9583 26.8831 29.2621 27.3047 29.2621C27.8034 29.2621 28.1989 28.8419 28.1689 28.3442L27.5698 18.1792C27.516 17.2659 27.6466 16.3512 27.9539 15.4895L29.9887 9.7839Z" fill="#45454E"/>
<path d="M16 4.88928C14.2393 4.88928 12.8068 6.32178 12.8068 8.08252C12.8068 8.22058 12.9187 8.33252 13.0568 8.33252C13.1948 8.33252 13.3068 8.22058 13.3068 8.08252C13.3068 6.59741 14.5149 5.38928 16 5.38928C17.4851 5.38928 18.6932 6.59741 18.6932 8.08252C18.6932 8.22058 18.8052 8.33252 18.9432 8.33252C19.0813 8.33252 19.1932 8.22058 19.1932 8.08252C19.1932 6.32178 17.7607 4.88928 16 4.88928Z" fill="#45454E"/>
<path d="M16 6.06006C14.8848 6.06006 13.9775 6.96729 13.9775 8.08252C13.9775 8.22058 14.0895 8.33252 14.2275 8.33252C14.3656 8.33252 14.4775 8.22058 14.4775 8.08252C14.4775 7.24304 15.1605 6.56006 16 6.56006C16.8395 6.56006 17.5225 7.24304 17.5225 8.08252C17.5225 8.22058 17.6344 8.33252 17.7725 8.33252C17.9105 8.33252 18.0225 8.22058 18.0225 8.08252C18.0225 6.96728 17.1152 6.06006 16 6.06006Z" fill="#45454E"/>
<path d="M11.9846 8.33252C12.1227 8.33252 12.2346 8.22058 12.2346 8.08252C12.2346 6.00622 13.9237 4.31714 16 4.31714C18.0763 4.31714 19.7654 6.00623 19.7654 8.08252C19.7654 8.22058 19.8773 8.33252 20.0154 8.33252C20.1534 8.33252 20.2654 8.22058 20.2654 8.08252C20.2654 5.73059 18.3519 3.81714 16 3.81714C13.6481 3.81714 11.7346 5.73059 11.7346 8.08252C11.7346 8.22058 11.8466 8.33252 11.9846 8.33252Z" fill="#45454E"/>
<path d="M11.8001 19.2774L10.1291 14.8914C9.71789 13.8122 8.68295 13.0989 7.52801 13.0989H6.6234C5.97385 13.0989 5.3749 12.7483 5.05701 12.1818L3.45017 9.31843C3.15142 8.78605 2.4103 8.72175 2.02433 9.19474L2.01125 9.21076C1.79471 9.47613 1.74895 9.83433 1.89061 10.1405C2.52851 11.5192 4.26504 15.2832 4.26504 15.2832C4.71641 16.1277 4.67774 17.4943 4.43439 19.018C4.26414 20.0842 4.25254 20.7872 4.33471 21.71C4.49631 23.5252 4.69707 26.8377 4.78541 28.346C4.81127 28.7877 5.1769 29.1315 5.61936 29.1315H5.7226C6.17779 29.1315 6.54919 28.7672 6.5579 28.3121L6.6737 22.2661C6.67723 22.082 6.82731 21.9346 7.01139 21.9344C7.19526 21.9342 7.34562 22.0809 7.34988 22.2647L7.48991 28.3154C7.50041 28.7692 7.87126 29.1315 8.32513 29.1315C8.76682 29.1315 9.1322 28.7884 9.15901 28.3475C9.24917 26.8648 9.44332 23.6368 9.53617 21.8235C9.58413 20.8868 9.56657 19.8889 9.40673 19.018C9.17689 17.7657 9.12831 17.5003 9.0715 16.9899L10.2307 19.89C10.4108 20.3406 10.9334 20.5462 11.3723 20.3392C11.7704 20.1513 11.9568 19.6887 11.8001 19.2774Z" fill="#45454E"/>
</svg>
