<svg width="24" height="21" viewBox="0 0 24 21" fill="none" xmlns="http://www.w3.org/2000/svg">
<path fill-rule="evenodd" clip-rule="evenodd" d="M12.1447 0.174461C11.8656 -0.0581525 11.4601 -0.0581548 11.181 0.174461L0.363114 9.18936C-0.357992 9.79028 0.0669373 10.964 1.00561 10.964H2.65488L3.06134 19.093C3.11475 20.1613 3.99645 21 5.06604 21H18.2597C19.3293 21 20.211 20.1613 20.2644 19.093L20.6708 10.964H22.3201C23.2588 10.964 23.6837 9.79028 22.9626 9.18936L12.1447 0.174461ZM4.58808 9.43349C4.57472 9.16643 4.3543 8.95675 4.0869 8.95675H3.77761L11.6629 2.38571L19.5481 8.95675H19.2388C18.9714 8.95675 18.751 9.16643 18.7377 9.43349L18.2597 18.9928H12.5451V13.5487C12.5451 13.2715 12.3204 13.0469 12.0433 13.0469H11.0397C10.7625 13.0469 10.5379 13.2715 10.5379 13.5487V18.9928H5.54338C5.27598 18.9928 5.05556 18.7831 5.0422 18.5161L4.58808 9.43349Z" fill="#8A8B8F"/>
</svg>
