<svg width="20" height="20" viewBox="0 0 20 20" fill="none" xmlns="http://www.w3.org/2000/svg">
<path d="M16.1877 1.87507C16.2498 1.25045 16.2498 0.687927 16.2498 0H3.75014C3.75014 0.687927 3.75014 1.25045 3.81225 1.87507H0V2.4997C0 8.06282 7.06318 12.0005 8.75075 12.8747L8.74957 15.0006C8.74957 16.0635 7.93744 16.8756 6.8745 16.8756H5.62405V19.3753H14.3748V16.8756H13.1243C12.0614 16.8756 11.2493 16.0635 11.2493 15.0006V12.8759C12.9368 12.0004 20 8.06279 20 2.50087V1.87624L16.1877 1.87507ZM1.31253 3.12552H3.93764C4.18726 5.93814 4.87517 7.93862 5.6252 9.37537C3.62473 7.81321 1.56214 5.62522 1.31253 3.12552ZM14.4381 9.37537C15.1881 7.93742 15.876 5.93814 16.1256 3.12552H18.7507C18.4378 5.62522 16.3752 7.81321 14.4381 9.37537Z" fill="black"/>
</svg>
